<?xml version="1.0" standalone="no"?>
<!DOCTYPE svg PUBLIC "-//W3C//DTD SVG 1.1//EN" "http://www.w3.org/Graphics/SVG/1.1/DTD/svg11.dtd">
<svg xmlns="http://www.w3.org/2000/svg" xmlns:xlink="http://www.w3.org/1999/xlink" height="500" stroke-miterlimit="10" style="fill-rule:nonzero;clip-rule:evenodd;stroke-linecap:round;stroke-linejoin:round;" version="1.1" viewBox="110 108 290 285" width="500" xml:space="preserve">
<defs/>
<clipPath id="ArtboardFrame">
<rect height="500" width="500" x="0" y="0"/>
</clipPath>
<g clip-path="url(#ArtboardFrame)" id="Untitled">
<path d="M-50-50L550-50L550-50L550 550L550 550L-50 550L-50 550L-50-50L-50-50Z" fill="#ffffff" fill-rule="nonzero" opacity="0" stroke="none"/>
<g opacity="1">
<clipPath clip-rule="nonzero" id="ClipPath">
<path d="M130.682 118.182L369.307 118.182L369.307 356.807L130.682 356.807L130.682 118.182Z"/>
</clipPath>
<g clip-path="url(#ClipPath)">
<clipPath clip-rule="nonzero" id="ClipPath_2">
<path d="M249.995 118.182C184.099 118.182 130.682 171.599 130.682 237.495C130.682 303.391 184.099 356.807 249.995 356.807C315.891 356.807 369.307 303.391 369.307 237.495C369.307 171.599 315.891 118.182 249.995 118.182Z"/>
</clipPath>
<g clip-path="url(#ClipPath_2)">
<path d="M250 117.188C183.552 117.188 129.688 171.052 129.688 237.5C129.688 248.508 131.294 259.121 134.062 269.25C134.544 268.673 135.112 268.214 135.75 267.812C133.185 258.123 131.687 247.997 131.688 237.5C131.688 172.156 184.656 119.188 250 119.188C315.344 119.188 368.312 172.156 368.312 237.5C368.312 302.844 315.344 355.813 250 355.812C242.983 355.812 236.15 355.077 229.469 353.906C229.319 354.134 229.139 354.399 228.969 354.625C228.672 355.02 228.328 355.363 228 355.719C235.141 357.04 242.477 357.813 250 357.812C316.448 357.812 370.312 303.948 370.312 237.5C370.312 171.052 316.448 117.188 250 117.188ZM183.594 337.781C184.456 338.353 185.358 338.874 186.25 339.406C186.313 339.376 186.351 339.319 186.406 339.281C186.412 339.226 186.347 339.188 186.375 339.125C186.472 338.905 186.656 338.861 186.844 338.844C186.765 338.816 186.675 338.781 186.594 338.75C185.843 338.46 184.574 338.094 183.594 337.781Z" fill="#c9b079" fill-rule="nonzero" opacity="1" stroke="none"/>
</g>
</g>
</g>
<g opacity="1">
<clipPath clip-rule="nonzero" id="ClipPath_3">
<path d="M122.667 256L240 256L240 356L122.667 356L122.667 256Z"/>
</clipPath>
<g clip-path="url(#ClipPath_3)">
<clipPath clip-rule="nonzero" id="ClipPath_4">
<path d="M105.63 274.13L141.854 242.641L239.615 355.089L203.385 386.583L105.63 274.13Z"/>
</clipPath>
<g clip-path="url(#ClipPath_4)">
<clipPath clip-rule="nonzero" id="ClipPath_5">
<path d="M105.63 274.13L141.854 242.641L239.615 355.089L203.385 386.583L105.63 274.13Z"/>
</clipPath>
<g clip-path="url(#ClipPath_5)">
<clipPath clip-rule="nonzero" id="ClipPath_6">
<path d="M105.63 274.13L141.854 242.641L239.615 355.089L203.385 386.583L105.63 274.13Z"/>
</clipPath>
<g clip-path="url(#ClipPath_6)">
<path d="M139.312 284.714C138.682 283.01 137.938 281.339 137.417 279.604C136.469 276.385 135.594 273.135 134.807 269.865C134.609 269.057 134.755 268.109 134.958 267.281C135.062 266.833 135.599 266.234 136 266.182C136.38 266.125 137.026 266.63 137.203 267.031C137.599 267.969 137.854 268.938 137.958 269.948C138.057 271.432 138.078 272.911 138.005 274.396C137.927 276.76 138.219 279.036 139.161 281.214C140.224 283.682 141.25 286.167 142.292 288.646L142.536 288.557C142.505 288.349 142.484 288.141 142.438 287.932C140.979 280.849 140.109 273.688 140.344 266.432C140.406 264.51 140.844 262.568 141.349 260.693C141.594 259.797 142.297 258.958 142.964 258.255C143.719 257.469 144.464 257.714 144.969 258.698C145.458 259.656 145.401 260.62 144.979 261.563C144.036 263.703 143.078 265.839 142.089 267.953C141.542 269.047 141.323 270.203 141.427 271.422C141.646 273.792 141.812 276.167 142.198 278.563C142.349 278.057 142.443 277.531 142.661 277.057C143.302 275.656 143.974 274.271 144.677 272.901C144.87 272.568 145.125 272.292 145.448 272.078C146.391 271.391 147.474 271.844 147.385 272.984C147.297 274.125 147.062 275.38 146.552 276.422C145.859 277.849 144.906 279.177 143.948 280.469C142.885 281.896 142.443 283.375 142.943 285.12C143.76 288.016 144.505 290.938 145.312 293.839C145.427 294.245 145.719 294.594 146.104 294.917C146 294.365 145.839 293.818 145.797 293.26C145.693 291.875 145.521 290.474 145.609 289.094C145.661 288.302 146.057 287.469 146.505 286.786C147.089 285.891 148.062 286.036 148.464 287.026C148.677 287.51 148.76 288.021 148.708 288.552C148.448 290.271 148.198 292.01 147.76 293.698C147.224 295.771 147.385 297.604 148.745 299.333C151.151 302.385 153.474 305.5 155.833 308.594C155.979 308.786 156.156 308.964 156.312 309.146L156.536 309.026C155.938 307.625 155.396 306.203 154.734 304.833C153.927 303.146 153.484 301.401 153.62 299.521C153.641 299.229 153.609 298.885 153.755 298.667C154.078 298.188 154.417 297.583 154.901 297.38C155.552 297.109 156.01 297.75 156.188 298.281C156.682 299.76 157.219 301.25 157.458 302.776C157.87 305.385 158.026 308.042 158.375 310.661C158.484 311.328 158.76 311.911 159.214 312.411C167.766 321.911 177.474 330.063 188.141 337.094C188.318 337.224 188.516 337.281 188.729 337.266C187.656 336.224 186.568 335.188 185.505 334.13C184.458 333.089 183.417 332.047 182.411 330.969C180.875 329.323 178.922 328.234 177.083 326.984C175.312 325.776 173.49 324.635 171.807 323.318C171.062 322.734 170.49 321.844 170.057 320.979C169.844 320.542 169.958 319.745 170.245 319.328C170.401 319.094 171.333 319.12 171.719 319.354C172.995 320.135 174.172 321.057 175.339 321.891C174.896 321.161 174.38 320.333 173.885 319.49C173.448 318.734 173.026 317.969 172.63 317.198C171.276 314.568 169.906 311.953 168.604 309.297C167.938 307.943 167.599 306.474 168.13 304.984C168.302 304.495 168.76 303.865 169.188 303.776C169.615 303.682 170.339 304.052 170.635 304.443C171.13 305.099 171.474 305.818 171.672 306.609C172.385 309.453 173.188 312.286 173.073 315.276C173.057 315.651 173.318 316.042 173.484 316.411C174.922 319.599 178.938 325.516 181.255 327.818C180.979 326.943 180.724 326.229 180.536 325.5C180.38 324.911 180.276 324.313 180.214 323.703C180.109 322.646 180.557 321.885 181.344 321.672C182.089 321.469 182.875 321.833 183.234 322.839C183.807 324.417 184.276 326.026 184.641 327.667C184.922 328.938 184.927 330.271 185.141 331.557C185.219 332.052 185.427 332.474 185.776 332.833C188.786 335.599 191.734 338.453 194.917 341.01C196.781 342.5 199.042 343.505 201.12 344.729L201.312 344.464C200.182 343.161 198.958 341.927 197.948 340.542C197.047 339.307 196.385 337.906 195.625 336.573C195.547 336.417 195.49 336.255 195.458 336.083C195.286 335.37 195.031 334.578 195.818 334.099C196.609 333.625 197.297 334.182 197.682 334.76C198.839 336.49 199.932 338.266 200.964 340.073C201.849 341.63 202.615 343.26 203.432 344.865C203.901 345.781 204.625 346.354 205.578 346.781C212.849 350.042 220.297 352.506 228.213 353.73C231.542 354.266 235.118 355.447 238.477 355.28C238.68 355.27 239.018 355.33 239.179 355.408C239.403 355.518 239.361 355.823 239.554 356C239.387 356.172 239.156 355.37 238.958 355.422C238.557 355.505 238.208 355.547 237.802 355.542C231.224 355.781 224.797 354.63 218.536 352.802C216.552 352.229 214.62 351.484 212.641 350.891C212.026 350.703 211.328 350.755 210.677 350.656C208.177 350.276 205.661 349.927 203.177 349.448C201.818 349.193 200.474 349.276 199.161 349.708C197.99 350.068 196.865 350.594 195.682 350.906C193.828 351.391 191.953 351.859 190.062 352.12C189.229 352.234 188.245 351.979 187.484 351.594C186.214 350.953 186.245 349.594 187.521 348.948C188.312 348.568 189.146 348.339 190.021 348.266C191.464 348.125 192.917 348.146 194.443 348.094C189.198 346.802 183.984 345.875 178.625 345.807C176.812 345.781 175 345.646 173.37 344.76C172.667 344.38 171.755 344.057 171.901 343.036C172.052 342.021 172.958 341.661 173.818 341.464C175.688 341.026 177.432 341.641 179.036 342.469C181.703 343.828 184.552 344.615 187.406 345.427C187.708 345.51 188.021 345.568 188.521 345.677C187.255 344.849 186.135 344.156 185.057 343.401C184.557 343.047 184.109 342.635 183.719 342.161C183.224 341.552 182.938 340.839 183.479 340.083C183.594 339.917 183.734 339.776 183.901 339.661C184.068 339.552 184.25 339.474 184.448 339.432C184.646 339.385 184.844 339.385 185.047 339.417C185.245 339.453 185.432 339.526 185.604 339.63C186.958 340.396 188.344 341.188 189.505 342.208C190.823 343.37 191.88 344.818 193.115 346.083C193.5 346.484 193.964 346.74 194.505 346.859C198.859 347.635 203.229 348.349 207.656 348.896C207.078 348.635 206.5 348.37 205.922 348.099C204.505 347.448 203.094 346.797 201.693 346.109C194.818 342.75 188.297 338.797 182.135 334.25C179.865 332.568 177.318 332.229 174.677 331.995C173.401 331.88 172.115 331.891 170.833 331.807C168.667 331.688 166.667 331.052 164.823 329.901C164.26 329.536 163.802 329.073 163.448 328.5C162.927 327.641 163.359 326.802 164.354 326.578C165.786 326.26 167.141 326.63 168.443 327.161C171.266 328.302 174.073 329.484 176.875 330.656L176.984 330.469C176.312 329.917 175.62 329.385 174.969 328.813C171.849 326.083 168.745 323.328 165.604 320.615C165.286 320.344 164.74 320.354 164.307 320.198C162.396 319.5 160.427 319.583 158.432 319.688C157.318 319.745 156.177 319.557 155.068 319.396C154.62 319.328 154.24 319.125 153.932 318.792C153.62 318.401 153.292 317.807 153.38 317.385C153.448 317.052 154.146 316.609 154.552 316.615C155.76 316.646 156.969 316.875 158.172 317.036C158.422 317.068 158.667 317.146 159.005 317.021C156.406 315.542 153.812 314.047 151.177 312.615C150.833 312.427 150.297 312.521 149.859 312.583C148.505 312.781 147.161 313.068 145.807 313.245C144.542 313.411 143.26 313.51 141.984 313.583C141.599 313.594 141.229 313.531 140.87 313.401C140.125 313.156 139.401 312.797 139.417 311.891C139.432 311.036 140.172 310.75 140.849 310.563C141.766 310.302 142.708 310.135 143.708 309.917C143.323 309.76 142.938 309.599 142.547 309.448C138.057 307.688 133.823 305.484 130.234 302.229C129.37 301.443 128.651 300.474 127.984 299.505C127.604 298.948 127.542 298.214 128.146 297.661C128.781 297.089 129.453 297.307 130.094 297.677C131.87 298.688 132.906 300.406 134.151 301.932C135.052 303.031 135.823 304.276 136.87 305.203C137.87 306.083 139.099 306.771 140.333 307.313C142.667 308.339 145.078 309.208 147.458 310.141C147.552 310.177 147.667 310.167 147.859 310.031C146.823 309.172 145.781 308.313 144.745 307.453C140.984 304.328 137.359 301.063 134.37 297.188C133.328 295.833 132.667 294.177 131.891 292.625C131.693 292.229 131.661 291.724 131.646 291.266C131.63 290.604 131.781 289.958 132.464 289.646C133.146 289.333 133.708 289.667 134.214 290.104C135.339 291.073 136.135 292.266 136.594 293.682C137.193 295.505 137.823 297.313 138.474 299.115C138.87 300.208 139.37 301.229 140.297 302.021C141.932 303.411 143.5 304.88 145.094 306.318C145.234 306.411 145.38 306.49 145.536 306.552C144.828 305.229 144.146 304.026 143.547 302.781C143.25 302.203 143.083 301.599 143.052 300.953C143.052 300.51 143.328 299.859 143.682 299.667C144.031 299.474 144.771 299.563 145.104 299.818C145.708 300.286 146.323 300.896 146.599 301.583C147.375 303.516 148.104 305.479 148.609 307.495C148.979 308.974 149.599 310.073 150.927 310.854C154.589 312.99 158.198 315.193 161.839 317.375C162.021 317.484 162.214 317.521 162.422 317.479C162.161 317.208 161.901 316.938 161.641 316.661C154.026 308.714 147.182 300.167 142.083 290.344C141.172 288.552 139.995 286.958 138.547 285.557C136.661 283.729 134.984 281.672 133.266 279.677C132.349 278.641 131.266 277.833 130.01 277.26C127.266 275.99 125.135 274.042 123.62 271.422C123.198 270.688 122.932 269.906 122.828 269.068C122.703 268.021 123.578 267.495 124.505 268.021C125.073 268.37 125.578 268.802 126.016 269.307C127.104 270.495 128.141 271.724 129.188 272.932L129.484 272.745C128.589 270.589 127.724 268.417 126.792 266.281C125.844 264.125 124.875 261.979 124.651 259.594C124.552 258.583 124.693 257.688 125.562 257C126.396 256.344 127.146 256.328 127.583 257.281C128.109 258.474 128.495 259.714 128.729 260.995C128.922 262.094 128.984 263.193 128.911 264.302C128.734 267.849 129.76 271.083 131.24 274.219C133.151 278.286 135.979 281.677 139.312 284.714ZM173.979 330.75C172.615 330.151 171.245 329.542 169.87 328.969C168.849 328.547 167.833 328.089 166.776 327.792C166.036 327.583 165.224 327.63 164.443 327.563L164.307 327.911C164.562 328.203 164.766 328.563 165.073 328.771C167.755 330.578 170.818 330.854 173.979 330.75ZM187.609 350.12C188.766 351.552 193.979 350.995 196.458 349.26C194.062 349.26 191.661 349.313 189.271 349.464C188.724 349.495 188.198 349.875 187.609 350.12ZM136.953 298.401C135.766 295.755 135.823 292.448 132.865 290.75C133 293.948 134.865 296.229 136.953 298.401ZM181.073 344.677C180.505 344.354 179.969 343.958 179.365 343.729C178.099 343.229 176.812 342.802 175.5 342.458C174.641 342.245 173.729 342.349 173 343.219C175.495 345.021 178.333 344.568 181.073 344.677ZM124.016 268.906C123.828 270.943 127.688 275.328 130.281 276.073C128.469 273.354 126.339 271.125 124.016 268.906ZM169.526 304.786L169.266 304.911C168.318 308.188 170.589 310.505 171.797 313.146C171.578 310.573 171.031 308.073 170.161 305.635C170.047 305.318 169.74 305.073 169.526 304.786ZM127.74 265.432C127.755 262.781 127.974 260.115 126.401 257.714C126.062 258.146 125.734 258.604 125.745 259.052C125.802 261.365 126.708 263.427 127.745 265.432L127.74 265.432ZM190.766 345.234C189.391 343.182 187.521 341.724 185.312 340.693C185.062 340.578 184.719 340.688 184.417 340.693C184.5 341.005 184.568 341.323 184.672 341.625C184.703 341.724 184.839 341.781 184.922 341.859C186.63 343.38 188.625 344.422 190.766 345.234ZM143.828 259.031C142.385 259.891 141.047 264.219 141.557 266.458C142.375 264.656 143.188 262.911 143.964 261.156C144.271 260.443 144.396 259.708 143.823 259.036L143.828 259.031ZM183.792 330.052C183.698 327.661 183.333 325.339 182.188 323.203C182.083 323.016 181.807 322.922 181.609 322.786C181.484 322.995 181.38 323.219 181.307 323.458C181.292 323.693 181.307 323.922 181.365 324.151C181.714 326.307 182.708 328.198 183.792 330.052ZM156.672 306.078C156.385 303.536 156.516 300.901 154.995 298.646C154.203 301.427 155.401 303.76 156.672 306.078ZM143.307 279.656C144.734 277.453 146.401 275.609 146.312 272.828C144.839 273.974 143.333 277.385 143.307 279.656ZM171.052 320.344C172.266 323.036 174.755 324.271 177.104 325.667C175.177 323.797 173.672 321.443 171.052 320.344ZM144.245 300.667C144.573 303.271 146.26 305.214 147.479 307.38C146.927 304.885 146.365 302.396 144.245 300.667ZM133.844 303.74L134.052 303.557C132.729 302.036 131.427 300.495 130.073 299.005C129.802 298.708 129.339 298.589 128.964 298.391L128.781 298.667C129.792 301.031 132.005 302.203 133.849 303.74L133.844 303.74ZM146.677 311.854C144.667 311.344 142.641 310.661 140.438 312.021C142.656 312.969 144.667 312.469 146.682 311.854L146.677 311.854ZM200.453 341.786C199.432 339.432 198.479 337.057 196.531 335.297C197.141 337.885 198.703 339.901 200.453 341.786ZM136.104 267.474C135.542 269.75 136.214 271.875 136.849 274C136.786 271.802 137.297 269.536 136.109 267.474L136.104 267.474ZM146.849 292.625C147.646 290.464 147.828 288.474 147.333 287.396C146.229 289.125 146.651 290.885 146.849 292.625ZM159.026 318.479C157.557 318.083 156.135 317.448 154.427 317.714C155.438 318.615 156.927 318.859 159.026 318.479Z" fill="#c9b079" fill-rule="nonzero" opacity="1" stroke="none"/>
</g>
</g>
</g>
</g>
</g>
<g opacity="1">
<clipPath clip-rule="nonzero" id="ClipPath_7">
<path d="M144 317.333L190.667 317.333L190.667 340L144 340L144 317.333Z"/>
</clipPath>
<g clip-path="url(#ClipPath_7)">
<clipPath clip-rule="nonzero" id="ClipPath_8">
<path d="M145.302 341.672L144.255 318.698L189.208 316.651L190.255 339.625L145.302 341.672Z"/>
</clipPath>
<g clip-path="url(#ClipPath_8)">
<clipPath clip-rule="nonzero" id="ClipPath_9">
<path d="M145.302 341.672L144.255 318.698L189.208 316.651L190.255 339.625L145.302 341.672Z"/>
</clipPath>
<g clip-path="url(#ClipPath_9)">
<clipPath clip-rule="nonzero" id="ClipPath_10">
<path d="M145.302 341.672L144.255 318.698L189.208 316.651L190.255 339.625L145.302 341.672Z"/>
</clipPath>
<g clip-path="url(#ClipPath_10)">
<path d="M159.562 325.438C161.427 325.594 166.411 325.828 174.62 329.755C185.422 334.932 188.948 337.964 190.042 338.901C190.208 339.042 190.229 339.297 190.083 339.464C189.938 339.635 189.688 339.651 189.521 339.51C188.443 338.583 184.948 335.594 174.271 330.479C166.375 326.698 161.516 326.401 159.599 326.245C159.422 326.833 159.094 328.203 158.573 329.458C158.161 330.438 157.635 331.349 156.995 331.833C156.349 332.328 155.042 332.823 153.818 333.057C152.974 333.219 152.172 333.255 151.641 333.104C151.385 333.036 151.141 332.865 151.005 332.583C150.891 332.344 150.854 332 151.057 331.526C151.24 331.109 151.641 330.547 152.417 329.828C152.953 329.328 153.677 328.745 154.641 328.068C153.016 328.604 151.979 328.781 151.339 328.714C150.828 328.656 150.51 328.464 150.312 328.203C150.12 327.948 150.036 327.615 150.036 327.214C150.036 327.016 150.073 326.833 150.135 326.667C148.844 326.839 147.615 326.901 146.672 326.74C145.781 326.583 145.13 326.224 144.818 325.651C144.609 325.255 144.542 324.75 144.708 324.109C144.828 323.646 145.146 323.323 145.63 323.135C146.021 322.984 146.531 322.922 147.109 322.938C147.896 322.958 148.812 323.115 149.703 323.323C149.339 322.906 149.068 322.427 148.932 321.875C148.88 321.651 148.906 321.365 149.089 321.12C149.24 320.911 149.505 320.724 149.958 320.688C150.359 320.656 150.953 320.75 151.792 321.115C152.115 321.25 152.479 321.432 152.885 321.656C152.615 321.068 152.432 320.417 152.37 319.693C152.365 319.641 152.344 319.401 152.406 319.161C152.453 318.958 152.557 318.76 152.734 318.615C152.979 318.417 153.417 318.281 154.172 318.641C154.797 318.932 155.531 319.635 156.255 320.505C157.703 322.26 159.13 324.688 159.562 325.438ZM154.479 322.646C155.224 323.151 156.073 323.771 157.042 324.536C157.089 324.578 157.125 324.625 157.151 324.677C157.37 324.792 157.578 324.891 157.776 324.984C158.078 325.005 158.297 325.026 158.396 325.036C157.766 323.979 156.708 322.313 155.641 321.021C155.005 320.255 154.38 319.625 153.833 319.365C153.667 319.286 153.526 319.24 153.406 319.224C153.328 319.214 153.276 319.208 153.24 319.24C153.188 319.281 153.182 319.354 153.172 319.411C153.156 319.51 153.167 319.604 153.167 319.625C153.271 320.849 153.786 321.844 154.479 322.646ZM150.896 325.755C151.182 325.568 151.526 325.411 151.917 325.297C152.188 325.214 152.484 325.146 152.792 325.094C152.708 325.068 152.625 325.042 152.542 325.01C152.323 324.943 152.109 324.865 151.901 324.776C150.609 324.349 148.594 323.776 147.089 323.74C146.63 323.729 146.229 323.766 145.917 323.885C145.698 323.969 145.536 324.099 145.484 324.307C145.38 324.708 145.391 325.026 145.526 325.271C145.729 325.656 146.203 325.844 146.807 325.948C147.896 326.135 149.391 326.005 150.896 325.755ZM152.161 324.021C152.505 324.13 152.792 324.234 153.016 324.318C153.036 324.323 153.057 324.333 153.078 324.339C153.797 324.557 154.552 324.708 155.255 324.807C155.391 324.776 155.521 324.745 155.641 324.714C155.344 324.51 155.047 324.292 154.76 324.047C154.474 323.802 154.198 323.542 153.943 323.255C152.932 322.573 152.12 322.125 151.479 321.849C150.807 321.563 150.344 321.464 150.021 321.49C149.792 321.505 149.688 321.589 149.714 321.688C149.984 322.813 150.974 323.531 152.161 324.021ZM157.891 325.979C157.917 325.964 157.943 325.948 157.964 325.932C157.88 325.901 157.797 325.865 157.708 325.828C157.24 325.813 156.578 325.776 155.833 325.693C155.557 325.688 155.276 325.688 154.99 325.693C153.917 325.953 152.568 326.266 151.214 326.5C150.979 326.682 150.839 326.911 150.839 327.214C150.839 327.453 150.859 327.656 151.01 327.776C151.193 327.927 151.505 327.953 151.995 327.906C153.099 327.792 154.927 327.219 157.891 325.979ZM158.693 326.51C158.547 326.573 158.401 326.635 158.255 326.693C155.604 328.281 153.953 329.495 152.958 330.417C152.302 331.026 151.948 331.49 151.792 331.849C151.714 332.026 151.688 332.151 151.729 332.245C151.755 332.297 151.807 332.318 151.849 332.328C152.297 332.453 152.964 332.406 153.667 332.271C154.76 332.063 155.932 331.635 156.516 331.193C157.057 330.781 157.484 329.984 157.833 329.146C158.224 328.203 158.505 327.193 158.693 326.51Z" fill="#c9b079" fill-rule="evenodd" opacity="1" stroke="none"/>
</g>
</g>
</g>
</g>
</g>
<path d="M214.213 223.137C214.28 223.22 214.317 223.376 214.317 223.595C214.025 225.585 214.114 227.741 214.588 230.074C215.072 232.407 216.296 234.652 218.254 236.803C220.213 238.944 223.301 240.751 227.525 242.22C230.843 243.262 234.28 243.782 237.838 243.782C238.129 243.782 238.572 243.782 239.171 243.782C239.754 243.699 240.155 243.657 240.379 243.657C244.598 243.366 248.369 242.335 251.692 240.553C255.025 238.777 257.65 236.543 259.567 233.845C261.494 231.152 262.463 228.215 262.463 225.032C262.463 221.991 261.609 219.178 259.9 216.595C258.202 214.012 255.801 211.835 252.692 210.053L221.421 191.866C217.864 189.782 215.109 187.251 213.15 184.262C211.192 181.262 210.213 178.064 210.213 174.657C210.213 170.965 211.301 167.569 213.484 164.47C215.661 161.361 218.635 158.824 222.4 156.866C226.176 154.897 230.468 153.73 235.275 153.366C235.426 153.366 235.614 153.366 235.838 153.366C236.056 153.366 236.28 153.324 236.504 153.241C236.504 153.241 236.577 153.241 236.734 153.241C237.176 153.241 237.546 153.241 237.838 153.241C241.53 153.241 245.077 153.798 248.484 154.907C253.661 156.532 257.786 159.147 260.859 162.741C263.926 166.324 265.463 170.298 265.463 174.657C265.463 175.032 265.275 175.22 264.9 175.22L261.9 175.22C261.76 175.22 261.65 175.147 261.567 174.991C261.426 174.855 261.39 174.71 261.463 174.553C261.754 172.553 261.655 170.397 261.171 168.074C260.697 165.741 259.463 163.506 257.463 161.366C255.473 159.215 252.369 157.397 248.15 155.907C244.9 154.881 241.463 154.366 237.838 154.366C237.546 154.366 237.135 154.366 236.609 154.366C236.025 154.439 235.577 154.47 235.275 154.47C231.135 154.762 227.4 155.798 224.067 157.574C220.744 159.355 218.109 161.595 216.15 164.303C214.192 167.001 213.213 169.939 213.213 173.116C213.213 176.147 214.056 178.96 215.754 181.553C217.463 184.137 219.864 186.319 222.963 188.095L254.359 206.282C257.843 208.282 260.567 210.798 262.525 213.824C264.484 216.855 265.463 220.069 265.463 223.47C265.463 227.168 264.369 230.569 262.192 233.678C260.01 236.793 257.03 239.324 253.254 241.282C249.473 243.241 245.223 244.407 240.504 244.782C240.28 244.782 240.056 244.782 239.838 244.782C239.614 244.782 239.426 244.814 239.275 244.887C239.202 244.887 239.171 244.887 239.171 244.887C239.171 244.887 239.093 244.887 238.942 244.887C238.494 244.887 238.129 244.887 237.838 244.887C234.14 244.887 230.593 244.329 227.192 243.22C222.077 241.527 217.968 238.902 214.859 235.345C211.76 231.793 210.213 227.835 210.213 223.47C210.213 223.111 210.4 222.928 210.775 222.928L213.754 222.928C213.905 222.928 214.056 223.001 214.213 223.137Z" fill="#c9b079" fill-rule="nonzero" opacity="1" stroke="none"/>
<path d="M235.123 314.97C236.05 314.97 236.519 314.512 236.519 313.595L236.519 237.908C236.519 236.981 236.05 236.512 235.123 236.512C234.79 236.512 234.623 236.345 234.623 236.012C234.623 235.694 234.79 235.533 235.123 235.533L260.581 235.533C260.649 235.533 260.686 235.533 260.686 235.533L261.665 235.533C267.29 235.658 272.509 236.783 277.331 238.908C282.149 241.022 286.373 243.908 289.998 247.575C293.634 251.231 296.462 255.47 298.477 260.304C300.488 265.127 301.498 270.272 301.498 275.741C301.498 281.231 300.488 286.366 298.477 291.158C296.462 295.939 293.634 300.158 289.998 303.825C286.373 307.491 282.149 310.403 277.331 312.554C272.509 314.694 267.29 315.83 261.665 315.97L235.123 315.97C234.79 315.97 234.623 315.804 234.623 315.47C234.623 315.137 234.79 314.97 235.123 314.97ZM260.686 236.512L239.686 236.512L239.686 314.97L261.665 314.97C266.759 314.845 271.503 313.741 275.894 311.658C280.279 309.575 284.144 306.757 287.477 303.2C290.811 299.632 293.399 295.502 295.248 290.804C297.108 286.111 298.04 281.09 298.04 275.741C298.04 270.397 297.108 265.382 295.248 260.7C293.399 256.007 290.811 251.877 287.477 248.304C284.144 244.736 280.279 241.918 275.894 239.845C271.503 237.762 266.759 236.653 261.665 236.512L260.686 236.512Z" fill="#c9b079" fill-rule="nonzero" opacity="1" stroke="none"/>
<path d="M221.196 245.296C222.946 245.505 224.509 246 225.884 246.776C227.259 247.557 228.347 248.536 229.154 249.713C229.972 250.88 230.384 252.145 230.384 253.505C230.384 254.828 229.998 256.083 229.238 257.276C228.472 258.474 227.41 259.453 226.05 260.213L222.321 262.38C222.321 264.312 221.634 266.083 220.259 267.692C218.884 269.291 217.04 270.474 214.738 271.234C214.665 271.234 214.665 271.234 214.738 271.234C213.279 271.692 211.738 271.921 210.113 271.921L209.759 271.984C209.686 271.984 209.623 271.984 209.571 271.984C209.498 271.984 209.43 271.963 209.363 271.921L208.779 271.921C206.889 271.921 205.175 271.463 203.634 270.546C202.092 269.619 200.852 268.369 199.925 266.796C198.993 265.213 198.529 263.479 198.529 261.588C198.529 259.937 198.873 258.411 199.571 257.005C200.279 255.604 201.243 254.416 202.467 253.442C203.686 252.458 205.061 251.796 206.592 251.463C205.061 251.13 203.686 250.479 202.467 249.505C201.243 248.536 200.279 247.349 199.571 245.942C198.873 244.526 198.529 242.994 198.529 241.338C198.529 239.411 198.993 237.666 199.925 236.109C200.852 234.557 202.092 233.307 203.634 232.359C205.175 231.416 206.889 230.942 208.779 230.942L209.363 230.942C209.363 230.942 209.384 230.942 209.425 230.942C209.644 230.942 209.826 230.942 209.967 230.942C211.618 230.942 213.206 231.192 214.738 231.692C217.04 232.432 218.884 233.604 220.259 235.213C221.634 236.812 222.321 238.588 222.321 240.546C222.321 240.703 222.238 240.776 222.071 240.776L220.738 240.776C220.665 240.776 220.618 240.75 220.592 240.692C220.519 240.625 220.488 240.557 220.488 240.484C220.654 239.599 220.623 238.63 220.404 237.588C220.196 236.546 219.639 235.546 218.738 234.588C217.847 233.619 216.456 232.807 214.571 232.151C213.081 231.682 211.55 231.442 209.967 231.442C209.826 231.442 209.644 231.442 209.425 231.442C209.425 231.442 209.404 231.442 209.363 231.442C207.706 231.442 206.196 231.895 204.821 232.796C203.446 233.687 202.347 234.88 201.529 236.38C200.722 237.869 200.321 239.52 200.321 241.338C200.321 243.161 200.722 244.807 201.529 246.276C202.347 247.75 203.436 248.937 204.8 249.838C206.16 250.729 207.665 251.187 209.321 251.213C209.748 250.02 210.493 248.963 211.55 248.046C212.602 247.119 213.884 246.401 215.384 245.901C215.384 245.901 215.394 245.901 215.425 245.901C216.743 245.474 218.134 245.244 219.592 245.213C219.993 245.213 220.363 245.229 220.696 245.255C220.79 245.255 220.956 245.27 221.196 245.296ZM214.571 270.734C216.238 270.166 217.509 269.474 218.384 268.651C219.259 267.817 219.847 266.953 220.154 266.046C220.472 265.13 220.618 264.244 220.592 263.38L213.925 267.317C212.102 268.375 210.93 269.744 210.404 271.421C211.863 271.39 213.248 271.166 214.571 270.734ZM225.363 258.713C226.555 258.02 227.477 257.171 228.134 256.171C228.8 255.161 229.134 254.088 229.134 252.963C229.134 251.77 228.785 250.666 228.092 249.651C227.394 248.64 226.451 247.796 225.259 247.13C224.061 246.453 222.706 246.005 221.196 245.796C221.154 245.796 221.134 245.796 221.134 245.796C220.894 245.77 220.727 245.755 220.634 245.755C220.342 245.713 219.993 245.692 219.592 245.692C218.201 245.692 216.884 245.911 215.634 246.338C215.592 246.338 215.571 246.338 215.571 246.338C215.54 246.338 215.54 246.338 215.571 246.338C213.946 246.911 212.748 247.609 211.988 248.442C211.238 249.265 210.764 250.125 210.571 251.026C210.389 251.916 210.368 252.755 210.509 253.546C210.509 253.619 210.493 253.687 210.467 253.755C210.394 253.786 210.326 253.796 210.259 253.796L209.113 253.796C208.946 253.796 208.863 253.734 208.863 253.609C208.863 252.974 208.946 252.338 209.113 251.713C207.488 251.786 205.998 252.265 204.654 253.151C203.321 254.041 202.264 255.229 201.488 256.713C200.706 258.187 200.321 259.812 200.321 261.588C200.321 263.354 200.706 264.963 201.488 266.421C202.264 267.869 203.305 269.046 204.613 269.963C205.93 270.88 207.394 271.369 209.009 271.421C209.384 269.119 210.79 267.25 213.238 265.817L225.363 258.713Z" fill="#c9b079" fill-rule="nonzero" opacity="1" stroke="none"/>
<g opacity="0">
<clipPath clip-rule="nonzero" id="ClipPath_11">
<path d="M153.333 277.333L170.667 277.333L170.667 325.333L153.333 325.333L153.333 277.333Z"/>
</clipPath>
<g clip-path="url(#ClipPath_11)">
<clipPath clip-rule="nonzero" id="ClipPath_12">
<path d="M155.714 276.297L178.385 280.161L170.833 324.521L148.161 320.661L155.714 276.297Z"/>
</clipPath>
<g clip-path="url(#ClipPath_12)">
<clipPath clip-rule="nonzero" id="ClipPath_13">
<path d="M178.172 280.125L155.495 276.26L147.943 320.625L170.62 324.484L178.172 280.125Z"/>
</clipPath>
<g clip-path="url(#ClipPath_13)">
<clipPath clip-rule="nonzero" id="ClipPath_14">
<path d="M178.172 280.125L155.495 276.26L147.943 320.625L170.62 324.484L178.172 280.125Z"/>
</clipPath>
<g clip-path="url(#ClipPath_14)">
<path d="M160.302 292.281C160.234 294.151 159.849 299.125 162.745 307.755C166.552 319.109 169.13 322.984 169.922 324.182C170.047 324.365 170.297 324.417 170.479 324.297C170.667 324.172 170.714 323.927 170.594 323.74C169.807 322.557 167.271 318.724 163.505 307.5C160.719 299.198 161.021 294.339 161.104 292.417C161.708 292.318 163.104 292.156 164.417 291.792C165.443 291.51 166.406 291.094 166.969 290.521C167.536 289.938 168.193 288.703 168.573 287.516C168.839 286.703 168.969 285.906 168.885 285.359C168.849 285.104 168.714 284.833 168.448 284.667C168.224 284.526 167.885 284.448 167.396 284.589C166.953 284.719 166.349 285.047 165.542 285.729C164.979 286.203 164.312 286.849 163.521 287.719C164.25 286.172 164.552 285.167 164.568 284.521C164.573 284.01 164.422 283.672 164.188 283.443C163.958 283.224 163.635 283.099 163.234 283.047C163.042 283.026 162.854 283.036 162.682 283.073C163.01 281.818 163.224 280.604 163.177 279.646C163.135 278.745 162.859 278.052 162.328 277.677C161.964 277.417 161.469 277.292 160.812 277.375C160.333 277.438 159.979 277.719 159.734 278.172C159.536 278.542 159.411 279.042 159.354 279.615C159.276 280.396 159.318 281.328 159.417 282.24C159.047 281.823 158.609 281.5 158.078 281.297C157.859 281.214 157.568 281.208 157.307 281.354C157.083 281.479 156.865 281.724 156.771 282.172C156.693 282.563 156.714 283.161 156.969 284.042C157.068 284.38 157.198 284.76 157.375 285.193C156.823 284.849 156.198 284.589 155.49 284.438C155.438 284.427 155.203 284.38 154.958 284.411C154.75 284.432 154.536 284.51 154.375 284.667C154.146 284.885 153.958 285.302 154.219 286.099C154.438 286.755 155.042 287.573 155.818 288.396C157.38 290.047 159.615 291.76 160.302 292.281ZM158.161 286.896C158.568 287.698 159.083 288.615 159.724 289.667C159.755 289.724 159.797 289.766 159.849 289.797C159.932 290.026 160.01 290.245 160.073 290.453C160.057 290.755 160.052 290.974 160.052 291.078C159.083 290.318 157.557 289.068 156.406 287.844C155.724 287.125 155.172 286.427 154.984 285.854C154.927 285.672 154.896 285.531 154.896 285.411C154.896 285.333 154.896 285.276 154.932 285.245C154.979 285.198 155.052 285.203 155.109 285.198C155.214 285.198 155.302 285.219 155.323 285.224C156.526 285.474 157.448 286.109 158.161 286.896ZM161.682 283.724C161.464 283.979 161.271 284.307 161.104 284.677C160.99 284.938 160.885 285.224 160.797 285.521C160.781 285.432 160.76 285.349 160.745 285.26C160.703 285.036 160.651 284.818 160.589 284.599C160.323 283.26 160.005 281.193 160.151 279.698C160.198 279.24 160.281 278.844 160.443 278.552C160.552 278.344 160.698 278.198 160.911 278.172C161.323 278.12 161.635 278.167 161.865 278.328C162.224 278.583 162.349 279.073 162.375 279.682C162.432 280.792 162.115 282.255 161.682 283.724ZM159.807 284.766C159.875 285.115 159.943 285.417 160 285.646C160.005 285.667 160.01 285.693 160.01 285.708C160.141 286.453 160.198 287.219 160.214 287.932C160.161 288.063 160.115 288.182 160.068 288.302C159.906 287.979 159.719 287.656 159.516 287.344C159.307 287.031 159.078 286.729 158.828 286.438C158.276 285.349 157.932 284.49 157.74 283.818C157.536 283.12 157.495 282.646 157.557 282.328C157.604 282.104 157.698 282.01 157.792 282.047C158.875 282.458 159.469 283.526 159.807 284.766ZM161.047 290.693C161.031 290.714 161.01 290.734 160.995 290.76C160.974 290.672 160.948 290.583 160.922 290.49C160.964 290.026 161.005 289.365 161.016 288.609C161.047 288.339 161.083 288.057 161.125 287.776C161.51 286.74 161.99 285.443 162.385 284.125C162.594 283.917 162.839 283.807 163.141 283.844C163.375 283.87 163.573 283.917 163.677 284.083C163.802 284.281 163.792 284.599 163.682 285.078C163.438 286.156 162.641 287.896 161.047 290.693ZM161.479 291.552C161.557 291.411 161.635 291.276 161.714 291.141C163.615 288.703 165.021 287.214 166.057 286.344C166.745 285.766 167.25 285.469 167.625 285.359C167.807 285.302 167.938 285.292 168.021 285.344C168.068 285.375 168.089 285.427 168.094 285.474C168.161 285.932 168.031 286.589 167.812 287.271C167.469 288.328 166.901 289.443 166.391 289.964C165.917 290.453 165.073 290.776 164.198 291.021C163.214 291.292 162.177 291.448 161.479 291.552Z" fill="#c9b079" fill-rule="evenodd" opacity="1" stroke="none"/>
</g>
</g>
</g>
</g>
</g>
<g opacity="1">
<clipPath clip-rule="nonzero" id="ClipPath_15">
<path d="M132 238.667L148 238.667L148 288L132 288L132 238.667Z"/>
</clipPath>
<g clip-path="url(#ClipPath_15)">
<clipPath clip-rule="nonzero" id="ClipPath_16">
<path d="M136.021 237.5L157.781 244.943L143.219 287.521L121.458 280.078L136.021 237.5Z"/>
</clipPath>
<g clip-path="url(#ClipPath_16)">
<clipPath clip-rule="nonzero" id="ClipPath_17">
<path d="M157.578 244.875L135.812 237.432L121.25 280.01L143.016 287.453L157.578 244.875Z"/>
</clipPath>
<g clip-path="url(#ClipPath_17)">
<clipPath clip-rule="nonzero" id="ClipPath_18">
<path d="M157.578 244.875L135.812 237.432L121.25 280.01L143.016 287.453L157.578 244.875Z"/>
</clipPath>
<g clip-path="url(#ClipPath_18)">
<path d="M137.995 254.016C137.625 255.849 136.448 260.698 137.922 269.677C139.859 281.495 141.786 285.734 142.375 287.042C142.469 287.245 142.703 287.333 142.906 287.245C143.109 287.151 143.198 286.917 143.109 286.714C142.526 285.422 140.63 281.229 138.714 269.552C137.292 260.906 138.375 256.156 138.76 254.276C139.375 254.276 140.776 254.339 142.13 254.188C143.188 254.073 144.208 253.818 144.849 253.344C145.505 252.859 146.349 251.745 146.917 250.635C147.312 249.875 147.568 249.109 147.573 248.557C147.578 248.297 147.484 248.01 147.25 247.802C147.052 247.63 146.729 247.495 146.224 247.557C145.771 247.615 145.12 247.844 144.208 248.385C143.583 248.76 142.818 249.292 141.901 250.026C142.865 248.615 143.328 247.672 143.443 247.036C143.531 246.536 143.438 246.177 143.24 245.911C143.047 245.656 142.75 245.479 142.365 245.37C142.177 245.313 141.995 245.297 141.812 245.307C142.339 244.12 142.745 242.953 142.854 242.005C142.958 241.104 142.792 240.38 142.328 239.922C142.01 239.609 141.542 239.406 140.88 239.38C140.401 239.365 140.005 239.583 139.688 239.995C139.432 240.328 139.229 240.802 139.083 241.359C138.88 242.12 138.776 243.047 138.724 243.958C138.427 243.49 138.042 243.099 137.552 242.813C137.349 242.698 137.068 242.646 136.781 242.75C136.542 242.839 136.286 243.042 136.125 243.469C135.984 243.844 135.906 244.438 136.021 245.349C136.062 245.693 136.13 246.094 136.234 246.547C135.745 246.12 135.172 245.76 134.495 245.5C134.443 245.479 134.224 245.396 133.974 245.385C133.766 245.375 133.547 245.422 133.359 245.547C133.099 245.729 132.849 246.109 132.979 246.938C133.083 247.62 133.552 248.521 134.188 249.458C135.464 251.339 137.396 253.391 137.995 254.016ZM136.74 248.354C137.01 249.208 137.375 250.198 137.839 251.344C137.859 251.401 137.896 251.448 137.938 251.49C137.99 251.729 138.026 251.958 138.057 252.172C137.995 252.469 137.953 252.682 137.938 252.786C137.099 251.88 135.792 250.401 134.854 249.01C134.297 248.193 133.865 247.411 133.771 246.818C133.74 246.63 133.734 246.484 133.755 246.365C133.766 246.286 133.776 246.234 133.818 246.208C133.87 246.172 133.938 246.182 133.995 246.193C134.099 246.203 134.182 246.24 134.208 246.245C135.354 246.688 136.161 247.464 136.74 248.354ZM140.724 245.786C140.469 246.005 140.224 246.297 140 246.635C139.844 246.875 139.698 247.141 139.557 247.417C139.557 247.333 139.557 247.245 139.552 247.156C139.547 246.927 139.531 246.703 139.505 246.479C139.453 245.115 139.474 243.021 139.859 241.568C139.974 241.125 140.125 240.745 140.328 240.484C140.469 240.297 140.635 240.177 140.854 240.182C141.266 240.198 141.568 240.297 141.766 240.49C142.078 240.802 142.125 241.307 142.057 241.911C141.932 243.01 141.385 244.406 140.724 245.786ZM138.703 246.516C138.719 246.875 138.734 247.182 138.75 247.417C138.755 247.438 138.755 247.458 138.755 247.479C138.766 248.234 138.698 249 138.599 249.703C138.526 249.823 138.458 249.938 138.396 250.047C138.286 249.703 138.156 249.354 138.005 249.016C137.849 248.672 137.672 248.333 137.469 248.01C137.104 246.844 136.901 245.943 136.818 245.25C136.724 244.526 136.76 244.052 136.875 243.75C136.958 243.536 137.068 243.458 137.151 243.505C138.156 244.089 138.573 245.24 138.703 246.516ZM138.979 252.563C138.958 252.583 138.938 252.599 138.917 252.62C138.906 252.531 138.901 252.443 138.885 252.344C139.005 251.891 139.151 251.245 139.281 250.505C139.354 250.24 139.438 249.969 139.521 249.698C140.073 248.74 140.75 247.531 141.354 246.297C141.594 246.125 141.854 246.052 142.141 246.141C142.37 246.203 142.562 246.281 142.635 246.464C142.729 246.682 142.667 246.99 142.484 247.443C142.062 248.469 141 250.063 138.979 252.563ZM139.266 253.479C139.37 253.359 139.469 253.234 139.568 253.115C141.833 251.01 143.464 249.766 144.625 249.073C145.396 248.615 145.938 248.401 146.323 248.354C146.516 248.328 146.646 248.339 146.719 248.401C146.766 248.443 146.771 248.495 146.771 248.542C146.766 249.005 146.531 249.635 146.203 250.271C145.698 251.26 144.958 252.266 144.37 252.703C143.823 253.104 142.943 253.292 142.042 253.396C141.021 253.505 139.974 253.495 139.266 253.479Z" fill="#c9b079" fill-rule="evenodd" opacity="1" stroke="none"/>
</g>
</g>
</g>
</g>
</g>
</g>
</svg>